<svg width="24" height="24" viewBox="0 0 18 18" fill="none" xmlns="http://www.w3.org/2000/svg">
<path fill-rule="evenodd" clip-rule="evenodd" d="M5 1.5H13C14.933 1.5 16.5 3.067 16.5 5V8.12132C16.5 8.1643 16.4992 8.2072 16.4976 8.25H14C10.8244 8.25 8.25 10.8244 8.25 14V16.5H5C3.067 16.5 1.5 14.933 1.5 13V5C1.5 3.067 3.067 1.5 5 1.5ZM9.75 16.3484C10.3689 16.1601 10.9303 15.8018 11.3652 15.3048L15.634 10.4261C15.8159 10.2182 15.9712 9.99107 16.098 9.75H14C11.6528 9.75 9.75 11.6528 9.75 14V16.3484ZM13 0H5C2.23858 0 0 2.23858 0 5V13C0 15.7614 2.23858 18 5 18H8.73116C10.173 18 11.5446 17.3776 12.494 16.2925L16.7629 11.4138C17.5604 10.5024 18 9.33244 18 8.12132V5C18 2.23858 15.7614 0 13 0Z" fill="#007AFF"/>
</svg>
