<svg width="21" height="20" viewBox="0 0 21 20" fill="none" xmlns="http://www.w3.org/2000/svg">
<path d="M7.87926 4.23916L5.79599 1.89549C5.30593 1.34418 4.53358 1.0864 3.90183 1.46718C3.56672 1.66917 3.24875 1.91304 2.95464 2.17368C1.4855 3.4756 1.17067 5.58299 1.87001 7.4172C2.6023 9.33786 3.87967 11.8797 6 14C9.3395 17.3395 13 19 16 19C17.8955 19 19.292 18.0643 19.7953 16.932C20.0421 16.3768 19.7238 15.7791 19.2494 15.3995L16.2494 12.9995C15.519 12.4152 14.481 12.4152 13.7506 12.9995L13.0374 13.5701C12.7137 13.829 12.2621 13.8629 11.9101 13.644C9.60301 12.2092 8.47384 10.948 7.27452 8.5625C7.10262 8.22058 7.15173 7.81034 7.3908 7.5115L7.94618 6.81728C8.55491 6.05636 8.52665 4.96748 7.87926 4.23916Z" stroke="#007AFF" stroke-width="1.5"/>
</svg>
