<svg width="320" height="48" viewBox="0 0 320 48" fill="none" xmlns="http://www.w3.org/2000/svg">
<path d="M0 42.7668V5.23324H27.0165C36.0409 5.23324 42.5112 10.9169 42.5112 18.4236C42.5112 26.0912 36.495 32.6327 28.6057 32.7399C24.3489 32.7399 20.8299 31.5603 17.7083 29.7373L17.4245 29.8981V42.7668H0ZM21.284 25.2869C23.2137 25.2869 24.7462 24.0536 24.7462 22.3378C24.7462 20.5684 23.384 19.3887 21.4543 19.3887H17.4245V24.5898C18.8434 25.0724 20.0353 25.2869 21.284 25.2869Z" fill="#464096"/>
<path d="M66.7541 43.571C53.8135 43.571 43.3134 38.0483 44.3918 25.8231L46.2648 5.23324H63.8595L62.4406 24.7507C62.2136 27.378 64.2568 28.933 66.7541 28.933C69.2515 28.933 71.2947 27.378 71.0677 24.7507L69.7055 5.23324H87.1868L89.1165 25.8231C90.1949 38.0483 79.7516 43.571 66.7541 43.571Z" fill="#464096"/>
<path d="M115.855 43.571C104.901 43.571 97.1818 37.7265 98.2035 27.5925L99.6224 17.941H90.7683V5.23324H127.547V17.941H116.763L115.628 23.2493C115.174 26.1448 117.274 28.0214 120.509 28.0214C122.496 28.0214 124.709 27.2708 126.185 25.9839L126.412 40.8901C124.085 42.2842 119.317 43.571 115.855 43.571Z" fill="#464096"/>
<path d="M166.869 43.571C158.752 43.571 153.474 42.1233 150.182 34.2413L147.742 28.4504H147.344V42.7668H129.976V5.23324H156.936C166.131 5.23324 172.431 9.79089 172.431 15.9035C172.431 21.9088 167.777 26.7346 158.923 26.7346C157.447 26.7346 156.085 26.5737 154.723 26.3592L154.552 26.8418C157.504 28.5576 159.888 29.1475 162.612 29.1475C166.131 29.1475 169.82 27.6461 171.466 25.555L173.566 42.2306C171.523 43.0349 168.344 43.571 166.869 43.571ZM152.963 23.7319C154.95 23.7319 156.482 22.6595 156.482 20.9973C156.482 19.2815 155.12 18.3164 153.133 18.3164H147.344V22.2842C149.785 23.3566 151.431 23.7319 152.963 23.7319Z" fill="#464096"/>
<path d="M175.648 42.7668V5.23324H193.073V42.7668H175.648Z" fill="#464096"/>
<path d="M235.824 44L213.122 30.3807L212.838 30.5416V42.7668H196.378V4H197.911L220.613 17.7265L220.954 17.5657V5.23324H237.414V44H235.824Z" fill="#464096"/>
<path d="M264.843 43.571C253.889 43.571 246.17 37.7265 247.191 27.5925L248.61 17.941H239.756V5.23324H276.535V17.941H265.751L264.616 23.2493C264.162 26.1448 266.262 28.0214 269.497 28.0214C271.484 28.0214 273.697 27.2708 275.173 25.9839L275.4 40.8901C273.073 42.2842 268.305 43.571 264.843 43.571Z" fill="#464096"/>
<path d="M318.411 44L295.708 30.3807L295.424 30.5416V42.7668H278.964V4H280.497L303.2 17.7265L303.54 17.5657V5.23324H320V44H318.411Z" fill="#464096"/>
</svg>
