<svg width="700" height="170" viewBox="0 0 700 170" fill="none" xmlns="http://www.w3.org/2000/svg">
<g clip-path="url(#clip0_176_39)">
<rect x="97" y="58" width="243" height="69" fill="#F9F9FF"/>
<rect x="64" y="130" width="630" height="32" fill="#464096" stroke="#F9F9FF" stroke-width="16"/>
<path d="M14 153.98V55.42H17.84L43.568 69.244H43.952C53.424 59.644 69.424 53.5 87.6 53.5C117.424 53.5 134.704 70.268 134.704 90.108C134.704 111.484 120.368 125.82 94.256 125.82C74.544 125.82 59.184 116.22 57.392 103.932H55.856V153.98H14ZM71.984 102.524C82.736 102.524 90.672 97.404 90.672 89.724C90.672 81.916 82.48 76.668 71.728 76.668C61.232 76.668 53.168 81.788 53.168 89.596C53.168 97.404 61.36 102.524 71.984 102.524Z" fill="#464096"/>
<path d="M202.047 125.82C174.143 125.82 155.583 119.932 155.583 98.556V78.844H138.559V62.204L189.503 34.428H197.439V55.42H222.655V78.844H197.439V92.412C197.439 98.94 202.559 99.708 210.495 99.708C213.055 99.708 219.455 99.324 221.503 98.684V124.796C217.663 125.436 205.247 125.82 202.047 125.82Z" fill="#464096"/>
<path d="M228.625 123.9V55.42H232.465L256.145 68.22H256.529C262.929 59.644 275.985 53.5 292.113 53.5C298.769 53.5 305.041 54.396 310.673 55.932V81.66C307.089 79.228 301.201 77.692 293.649 77.692C282.385 77.692 270.481 84.86 270.481 96.892V123.9H228.625Z" fill="#464096"/>
<path d="M317.372 123.9V55.42H359.228V123.9H317.372Z" fill="#FBBF00"/>
<path d="M368 123.9V55.42H371.84L395.264 68.092H395.648C403.584 59.516 417.792 53.5 434.048 53.5C459.904 53.5 479.232 66.3 479.232 83.452V123.9H437.376V87.164C437.376 79.996 431.36 75.516 423.296 75.516C415.36 75.516 409.856 80.124 409.856 88.316V123.9H368Z" fill="#FBBF00"/>
<path d="M547.922 125.82C520.018 125.82 501.458 119.932 501.458 98.556V78.844H484.434V62.204L535.378 34.428H543.314V55.42H568.53V78.844H543.314V92.412C543.314 98.94 548.434 99.708 556.37 99.708C558.93 99.708 565.33 99.324 567.378 98.684V124.796C563.538 125.436 551.122 125.82 547.922 125.82Z" fill="#FBBF00"/>
<path d="M574.5 123.9V55.42H578.34L601.764 68.092H602.148C610.084 59.516 624.292 53.5 640.548 53.5C666.404 53.5 685.732 66.3 685.732 83.452V123.9H643.876V87.164C643.876 79.996 637.86 75.516 629.796 75.516C621.86 75.516 616.356 80.124 616.356 88.316V123.9H574.5Z" fill="#FBBF00"/>
<path d="M338.62 47.744C324.284 47.744 315.836 40.704 315.836 31.872C315.836 23.04 324.284 16 338.62 16C352.828 16 361.276 23.04 361.276 31.872C361.276 40.704 352.828 47.744 338.62 47.744Z" fill="#FBBF00"/>
<path d="M6 153.98C6 158.398 9.58172 161.98 14 161.98H55.856C60.2743 161.98 63.856 158.398 63.856 153.98V125.637C64.2245 125.876 64.597 126.108 64.9732 126.335C72.9239 131.129 83.1643 133.82 94.256 133.82C108.735 133.82 120.97 129.832 129.668 121.886C138.443 113.869 142.704 102.652 142.704 90.108C142.704 89.0075 142.663 87.9192 142.581 86.844H147.583V98.556C147.583 105.083 149.011 110.967 152.094 116.008C155.179 121.052 159.595 124.72 164.717 127.331C174.625 132.383 187.863 133.82 202.047 133.82C203.815 133.82 207.851 133.719 211.888 133.54C215.747 133.37 220.327 133.102 222.818 132.687C223.972 132.495 225.034 132.061 225.955 131.444C226.79 131.739 227.689 131.9 228.625 131.9H270.481C274.899 131.9 278.481 128.318 278.481 123.9V96.892C278.481 93.8167 279.908 91.2349 282.648 89.1744C285.523 87.013 289.591 85.692 293.649 85.692C300.365 85.692 304.439 87.098 306.181 88.2798C307.157 88.9424 308.248 89.3685 309.372 89.5536V123.9C309.372 128.318 312.954 131.9 317.372 131.9H359.228C360.847 131.9 362.355 131.419 363.614 130.592C364.874 131.419 366.381 131.9 368 131.9H409.856C414.274 131.9 417.856 128.318 417.856 123.9V88.316C417.856 86.0998 418.541 85.1685 419.013 84.7346C419.577 84.2163 420.839 83.516 423.296 83.516C425.917 83.516 427.55 84.2472 428.353 84.8912C428.999 85.4101 429.376 86.0397 429.376 87.164V123.9C429.376 128.318 432.958 131.9 437.376 131.9H479.232C483.65 131.9 487.232 128.318 487.232 123.9V86.844H493.458V98.556C493.458 105.083 494.886 110.967 497.969 116.008C501.054 121.052 505.47 124.72 510.592 127.331C520.5 132.383 533.738 133.82 547.922 133.82C549.69 133.82 553.726 133.719 557.763 133.54C561.622 133.37 566.202 133.102 568.693 132.687C569.847 132.495 570.909 132.061 571.83 131.444C572.665 131.739 573.564 131.9 574.5 131.9H616.356C620.774 131.9 624.356 128.318 624.356 123.9V88.316C624.356 86.0998 625.041 85.1685 625.513 84.7346C626.077 84.2163 627.339 83.516 629.796 83.516C632.417 83.516 634.05 84.2472 634.853 84.8912C635.499 85.41 635.876 86.0397 635.876 87.164V123.9C635.876 128.318 639.458 131.9 643.876 131.9H685.732C690.15 131.9 693.732 128.318 693.732 123.9V83.452C693.732 71.5347 686.944 61.7962 677.255 55.3754C667.621 48.9909 654.704 45.5 640.548 45.5C625.065 45.5 610.69 50.3978 600.77 58.4586L582.147 48.3837C580.977 47.7512 579.669 47.42 578.34 47.42H574.5C573.445 47.42 572.437 47.6243 571.515 47.9955C570.593 47.6243 569.585 47.42 568.53 47.42H551.314V34.428C551.314 30.0097 547.732 26.428 543.314 26.428H535.378C534.04 26.428 532.723 26.7637 531.548 27.4042L480.604 55.1802C478.664 56.2381 477.277 58.0323 476.713 60.1076C474.897 58.3763 472.897 56.7948 470.755 55.3754C461.121 48.9909 448.204 45.5 434.048 45.5C418.565 45.5 404.19 50.3978 394.27 58.4586L375.647 48.3837C374.477 47.7512 373.169 47.42 371.84 47.42H368C366.381 47.42 364.874 47.9012 363.614 48.7284C363.119 48.4034 362.586 48.1317 362.023 47.9217C366.554 43.7984 369.276 38.2017 369.276 31.872C369.276 24.6583 365.741 18.3966 360.021 14.1829C354.428 10.0629 346.969 8 338.62 8C330.221 8 322.733 10.056 317.12 14.1736C311.375 18.3881 307.836 24.6545 307.836 31.872C307.836 38.1338 310.5 43.6798 314.957 47.791C314.435 47.9559 313.937 48.1729 313.468 48.4358C313.243 48.3521 313.013 48.278 312.778 48.2139C306.461 46.4911 299.481 45.5 292.113 45.5C277.121 45.5 263.611 50.2706 254.735 58.3638L236.269 48.3824C235.101 47.7508 233.793 47.42 232.465 47.42H228.625C227.57 47.42 226.562 47.6243 225.64 47.9955C224.718 47.6243 223.71 47.42 222.655 47.42H205.439V34.428C205.439 30.0097 201.857 26.428 197.439 26.428H189.503C188.165 26.428 186.848 26.7637 185.673 27.4042L134.729 55.1802C132.488 56.4024 130.984 58.6074 130.636 61.0932C120.917 51.4169 105.883 45.5 87.6 45.5C70.2173 45.5 54.0139 50.6423 42.6617 59.6754L21.6265 48.3729C20.4624 47.7474 19.1615 47.42 17.84 47.42H14C9.58172 47.42 6 51.0018 6 55.42V153.98ZM220.625 86.844V90.7323C220.118 90.7883 219.613 90.8932 219.117 91.0482C219.152 91.0373 219.17 91.0317 219.17 91.0309C219.169 91.0275 218.889 91.0936 218.203 91.1868C217.465 91.287 216.546 91.3812 215.546 91.4621C213.516 91.6263 211.501 91.708 210.495 91.708C208.594 91.708 207.131 91.6593 205.974 91.5332C205.776 91.5116 205.599 91.4888 205.439 91.4657V86.844H220.625ZM566.5 86.844V90.7323C565.993 90.7883 565.488 90.8932 564.992 91.0482C565.027 91.0373 565.045 91.0317 565.045 91.0309C565.044 91.0275 564.764 91.0936 564.078 91.1868C563.34 91.287 562.421 91.3812 561.421 91.4621C559.391 91.6263 557.376 91.708 556.37 91.708C554.469 91.708 553.006 91.6593 551.849 91.5332C551.651 91.5116 551.474 91.4888 551.314 91.4657V86.844H566.5ZM82.672 89.724C82.672 90.4384 82.4267 91.335 80.893 92.3673C79.2008 93.5063 76.197 94.524 71.984 94.524C67.8488 94.524 64.7962 93.5121 63.0369 92.3365C61.4263 91.2602 61.168 90.3228 61.168 89.596C61.168 88.813 61.4509 87.8767 63.0009 86.826C64.7041 85.6714 67.675 84.668 71.728 84.668C75.9058 84.668 78.982 85.7021 80.7584 86.9003C82.3975 88.0059 82.672 88.9819 82.672 89.724Z" stroke="#F9F9FF" stroke-width="16" stroke-linejoin="round"/>
<rect x="72" y="138" width="614" height="16" fill="#464096"/>
</g>
<defs>
<clipPath id="clip0_176_39">
<rect width="700" height="170" fill="white"/>
</clipPath>
</defs>
</svg>
