<svg width="26" height="24" viewBox="0 0 26 24" fill="none" xmlns="http://www.w3.org/2000/svg">
<g clip-path="url(#clip0_15_645)">
<path d="M15.143 12.1161L15.1982 12.613C15.4514 12.5849 15.643 12.3708 15.643 12.1161C15.643 11.8613 15.4514 11.6473 15.1982 11.6191L15.143 12.1161ZM3.08712 13.4556L3.03191 12.9587L3.08712 13.4556ZM2.20761 9.92407L2.70258 9.85335L2.20761 9.92407ZM3.08712 10.7765L3.14234 10.2796L3.08712 10.7765ZM2.54378 1.44941L2.34071 1.90631L2.54378 1.44941ZM1.14769 2.50464L0.652713 2.57535L1.14769 2.50464ZM2.54377 22.7827L2.74684 23.2397L2.54377 22.7827ZM1.14769 21.7275L0.652711 21.6568L1.14769 21.7275ZM24.4877 13.03L24.2846 12.573L24.4877 13.03ZM24.4877 11.2023L24.6908 10.7454L24.4877 11.2023ZM24.2846 12.573L2.3407 22.3258L2.74684 23.2397L24.6908 13.4869L24.2846 12.573ZM2.34071 1.90631L24.2846 11.6592L24.6908 10.7454L2.74685 0.992504L2.34071 1.90631ZM2.70258 9.85335L1.64266 2.43393L0.652713 2.57535L1.71263 9.99478L2.70258 9.85335ZM1.64266 21.7982L2.70258 14.3788L1.71263 14.2374L0.652711 21.6568L1.64266 21.7982ZM3.14234 13.9526L15.1982 12.613L15.0878 11.6191L3.03191 12.9587L3.14234 13.9526ZM15.1982 11.6191L3.14234 10.2796L3.03191 11.2735L15.0878 12.613L15.1982 11.6191ZM2.70258 14.3788C2.73483 14.1531 2.91571 13.9777 3.14234 13.9526L3.03191 12.9587C2.35202 13.0342 1.80937 13.5602 1.71263 14.2374L2.70258 14.3788ZM1.71263 9.99478C1.80937 10.672 2.35202 11.1979 3.03191 11.2735L3.14234 10.2796C2.91571 10.2544 2.73483 10.0791 2.70258 9.85335L1.71263 9.99478ZM2.74685 0.992504C1.6693 0.513591 0.485952 1.40802 0.652713 2.57535L1.64266 2.43393C1.58708 2.04482 1.98153 1.74668 2.34071 1.90631L2.74685 0.992504ZM2.3407 22.3258C1.98152 22.4855 1.58707 22.1873 1.64266 21.7982L0.652711 21.6568C0.48595 22.8241 1.66929 23.7186 2.74684 23.2397L2.3407 22.3258ZM24.6908 13.4869C25.8785 12.959 25.8785 11.2733 24.6908 10.7454L24.2846 11.6592C24.6805 11.8352 24.6805 12.3971 24.2846 12.573L24.6908 13.4869Z" fill="#007AFF"/>
</g>
<defs>
<clipPath id="clip0_15_645">
<rect width="26" height="24" fill="white"/>
</clipPath>
</defs>
</svg>
