<svg width="24" height="17" viewBox="0 0 24 17" fill="none" xmlns="http://www.w3.org/2000/svg">
<path fill-rule="evenodd" clip-rule="evenodd" d="M4.75 -3.8147e-05C2.12665 -3.8147e-05 0 2.12661 0 4.74997V12.0642C0 14.6876 2.12665 16.8142 4.75 16.8142H13.0214C15.6084 16.8142 17.7124 14.7461 17.7702 12.173L20.6899 14.4438C21.8394 15.3379 23.5143 14.5187 23.5143 13.0625V3.75174C23.5143 2.29549 21.8394 1.47632 20.6899 2.37038L17.7702 4.64124C17.7124 2.0681 15.6084 -3.8147e-05 13.0214 -3.8147e-05H4.75ZM17.7714 6.54058V10.2736L21.6108 13.2598C21.775 13.3875 22.0143 13.2705 22.0143 13.0625V3.75174C22.0143 3.54371 21.775 3.42668 21.6108 3.55441L17.7714 6.54058ZM16.2714 5.80696V4.74996C16.2714 2.95504 14.8164 1.49996 13.0214 1.49996H4.75C2.95508 1.49996 1.5 2.95504 1.5 4.74997V12.0642C1.5 13.8592 2.95508 15.3142 4.75 15.3142H13.0214C14.8164 15.3142 16.2714 13.8592 16.2714 12.0642V11.0073V10.6404V6.17377V5.80696Z" fill="#007AFF"/>
</svg>
